<svg id="Layer_1" data-name="Layer 1" xmlns="http://www.w3.org/2000/svg" viewBox="0 0 187.47 121.98"><defs><style>.cls-1,.cls-10,.cls-11,.cls-7,.cls-8,.cls-9{fill:none;stroke:#3953a4;stroke-miterlimit:10;}.cls-1{stroke-width:1.5px;}.cls-2{font-size:41px;fill:#47567f;font-family:ArnoPro-Regular, Arno Pro;letter-spacing:0.26em;}.cls-3{letter-spacing:0.25em;}.cls-4{letter-spacing:0.24em;}.cls-5{letter-spacing:0.22em;}.cls-6{letter-spacing:0.25em;}.cls-7{stroke-opacity:0.6;}.cls-10,.cls-11,.cls-7,.cls-8,.cls-9{stroke-width:2px;}.cls-8{stroke-opacity:0.4;}.cls-10{stroke-opacity:0.2;}.cls-11{stroke-opacity:0.1;}</style></defs><title>amset_logo</title><path class="cls-1" d="M47.46-.13" transform="translate(-0.85 0.03)"/><text class="cls-2" transform="translate(4.5 72.79)">A<tspan class="cls-3" x="35.71" y="0">M</tspan><tspan class="cls-4" x="80.93" y="0">S</tspan><tspan class="cls-5" x="110.74" y="0">E</tspan><tspan class="cls-6" x="142.68" y="0">T</tspan></text><path class="cls-7" d="M38.05,114.84s41-27.06,41-53.88-41-53.88-41-53.88" transform="translate(-0.85 0.03)"/><path class="cls-8" d="M56.83,121.24S79.06,99.24,79.06,61,56.83.68,56.83.68" transform="translate(-0.85 0.03)"/><path class="cls-9" d="M1.36,99.77s33.92-19.94,33.92-39-33.92-39-33.92-39" transform="translate(-0.85 0.03)"/><path class="cls-10" d="M146.73,104.28s-33.92-19-33.92-43.32,33.92-43.32,33.92-43.32" transform="translate(-0.85 0.03)"/><path class="cls-11" d="M187.51,102.52s-14.9-20.63-14.9-41.71,14.9-41.72,14.9-41.72" transform="translate(-0.85 0.03)"/></svg>